<?xml version="1.0" encoding="UTF-8" standalone="no"?>
<!-- Created with Inkscape (http://www.inkscape.org/) -->

<svg
   xmlns:dc="http://purl.org/dc/elements/1.1/"
   xmlns:cc="http://creativecommons.org/ns#"
   xmlns:rdf="http://www.w3.org/1999/02/22-rdf-syntax-ns#"
   xmlns:svg="http://www.w3.org/2000/svg"
   xmlns="http://www.w3.org/2000/svg"
   xmlns:sodipodi="http://sodipodi.sourceforge.net/DTD/sodipodi-0.dtd"
   xmlns:inkscape="http://www.inkscape.org/namespaces/inkscape"
   width="200mm"
   height="200mm"
   viewBox="0 0 200 200"
   version="1.1"
   id="svg8"
   inkscape:version="0.92.4 (5da689c313, 2019-01-14)"
   sodipodi:docname="plugOff.svg">
  <defs
     id="defs2" />
  <sodipodi:namedview
     id="base"
     pagecolor="#ffffff"
     bordercolor="#666666"
     borderopacity="1.0"
     inkscape:pageopacity="0.0"
     inkscape:pageshadow="2"
     inkscape:zoom="0.98994949"
     inkscape:cx="380.56478"
     inkscape:cy="375.29434"
     inkscape:document-units="mm"
     inkscape:current-layer="layer1"
     showgrid="false"
     inkscape:window-width="1920"
     inkscape:window-height="1057"
     inkscape:window-x="-8"
     inkscape:window-y="-8"
     inkscape:window-maximized="1" />
  <metadata
     id="metadata5">
    <rdf:RDF>
      <cc:Work
         rdf:about="">
        <dc:format>image/svg+xml</dc:format>
        <dc:type
           rdf:resource="http://purl.org/dc/dcmitype/StillImage" />
        <dc:title></dc:title>
      </cc:Work>
    </rdf:RDF>
  </metadata>
  <g
     inkscape:label="Layer 1"
     inkscape:groupmode="layer"
     id="layer1"
     transform="translate(0,-97)">
    <path
       id="path836"
       style="fill:none;fill-opacity:1;stroke:#5a5a5a;stroke-width:2.00476408;stroke-miterlimit:4;stroke-dasharray:none;stroke-opacity:0.81960784"
       d="m 101.76492,277.68457 a 6.4409008,6.4409008 0 0 1 -6.4409,6.4409 6.4409008,6.4409008 0 0 1 -6.4409,-6.4409 6.4409008,6.4409008 0 0 1 6.4409,-6.4409 6.4409008,6.4409008 0 0 1 6.4409,6.4409 z M 72.620075,123.0406 h 46.854665 c 14.11584,0 25.47985,11.36402 25.47985,25.47985 v 95.72002 c 0,14.11584 -11.36401,25.47985 -25.47985,25.47985 H 72.620075 c -14.115837,0 -25.479851,-11.36401 -25.479851,-25.47985 v -95.72002 c 0,-14.11583 11.364014,-25.47985 25.479851,-25.47985 z m -4.446455,-6.87763 h 56.42061 c 16.2912,0 29.40649,13.1153 29.40649,29.40649 v 110.47121 c 0,16.2912 -13.11529,29.4065 -29.40649,29.4065 H 68.17362 c -16.291196,0 -29.406492,-13.1153 -29.406492,-29.4065 V 145.56946 c 0,-16.29119 13.115296,-29.40649 29.406492,-29.40649 z" />
    <path
       style="fill:#4d4d4d;fill-opacity:0.28643215;stroke:#5a5a5a;stroke-width:7.63579893;stroke-miterlimit:4;stroke-dasharray:none;stroke-opacity:0.81960784"
       d="m 389.96394,76.090037 c -50.55902,0.133715 -101.12849,0.183396 -151.68073,0.430104 -21.70286,5.983147 -43.16041,15.581375 -58.46657,32.620879 -14.49469,14.47169 -23.88418,33.7922 -28.10655,53.68565 -1.82444,46.39736 -0.75336,92.87413 -1.12521,139.30274 0.20982,103.37719 -0.56918,206.76341 0.61411,310.1346 -0.24524,17.86366 7.88466,34.71868 17.29622,49.45713 17.4261,25.49807 46.30036,43.62645 77.19585,46.4343 32.98027,0.52891 65.96688,0.38843 98.95017,0.54066 3.25921,-2.69631 -4.05085,-5.45068 -5.29935,-8.28839 -10.41753,-12.45668 -7.14269,-33.91229 7.47354,-41.64511 0.44277,-3.9819 -6.20906,-1.90194 -8.60207,-2.67138 -27.87706,-1.09837 -56.48614,1.2984 -83.87226,-2.28271 -35.26456,-6.8503 -65.19954,-34.54937 -75.40828,-69.06918 -4.55331,-17.27406 -2.68982,-35.71674 -3.53272,-53.48067 -0.3861,-106.55608 -0.92122,-213.11826 -0.24826,-319.67362 0.33679,-20.05385 -0.27006,-41.14131 9.54631,-59.36721 10.8727,-22.46337 29.67976,-41.50397 53.49099,-49.89697 10.75978,-4.566697 22.19237,-7.463183 33.94801,-6.282283 64.22204,0.294631 128.46219,-0.647632 192.67279,0.643183 24.85124,1.869778 47.95734,16.07215 63.73558,35.14962 15.93528,19.21457 23.37823,44.23572 22.07348,68.98842 0.66105,115.52804 0.24779,231.06343 -0.40392,346.59087 -0.27025,14.94126 0.69264,30.50256 -5.63466,44.37408 -9.92157,26.41201 -31.87245,47.88653 -58.15875,57.96145 -18.2636,7.49229 -38.97066,4.78775 -58.45847,5.87531 -17.73498,0.43979 -35.57141,0.0222 -53.23836,1.51735 -2.04494,2.84032 3.76564,3.33613 4.52399,5.88335 9.04949,8.73156 10.63923,23.37145 4.47072,34.12224 -2.38162,4.1365 -6.74895,6.71454 -9.40705,10.44482 4.62068,2.6634 11.80355,0.31178 17.35805,1.10683 32.04864,-0.41849 64.1747,0.95131 96.17362,-1.1167 40.9783,-5.8859 76.11375,-37.79841 87.11974,-77.53316 5.52888,-14.15164 2.52583,-29.47204 3.27511,-44.27308 -0.029,-139.84333 0.0579,-279.69448 -0.0434,-419.53293 -6.15587,-29.19376 -22.81372,-56.5413 -48.14038,-72.859795 C 512.19706,81.461027 490.67203,75.19219 469.18053,76.32556 442.77662,75.994671 416.36928,76.088381 389.96394,76.090037 Z"
       id="path885"
       inkscape:connector-curvature="0"
       transform="matrix(0.26458333,0,0,0.26458333,0,97)" />
    <circle
       style="fill:#ff0100;fill-opacity:1;stroke:#a01d23;stroke-width:2;stroke-miterlimit:4;stroke-dasharray:none;stroke-opacity:1"
       id="path887"
       cx="110.24868"
       cy="159.22255"
       r="24.722431" />
  </g>
</svg>
