<?xml version="1.0" encoding="UTF-8" standalone="no"?>
<!-- Created with Inkscape (http://www.inkscape.org/) -->

<svg
   xmlns:dc="http://purl.org/dc/elements/1.1/"
   xmlns:cc="http://creativecommons.org/ns#"
   xmlns:rdf="http://www.w3.org/1999/02/22-rdf-syntax-ns#"
   xmlns:svg="http://www.w3.org/2000/svg"
   xmlns="http://www.w3.org/2000/svg"
   xmlns:sodipodi="http://sodipodi.sourceforge.net/DTD/sodipodi-0.dtd"
   xmlns:inkscape="http://www.inkscape.org/namespaces/inkscape"
   width="24"
   height="24"
   viewBox="0 0 6.35 6.35"
   version="1.1"
   id="svg8"
   inkscape:version="0.92.4 (5da689c313, 2019-01-14)"
   sodipodi:docname="plugOff.svg">
  <defs
     id="defs2" />
  <sodipodi:namedview
     id="base"
     pagecolor="#ffffff"
     bordercolor="#666666"
     borderopacity="1.0"
     inkscape:pageopacity="0.0"
     inkscape:pageshadow="2"
     inkscape:zoom="22.4"
     inkscape:cx="14.853525"
     inkscape:cy="13.429393"
     inkscape:document-units="mm"
     inkscape:current-layer="layer1"
     showgrid="false"
     inkscape:window-width="1920"
     inkscape:window-height="1057"
     inkscape:window-x="-8"
     inkscape:window-y="-8"
     inkscape:window-maximized="1"
     units="px" />
  <metadata
     id="metadata5">
    <rdf:RDF>
      <cc:Work
         rdf:about="">
        <dc:format>image/svg+xml</dc:format>
        <dc:type
           rdf:resource="http://purl.org/dc/dcmitype/StillImage" />
        <dc:title></dc:title>
      </cc:Work>
    </rdf:RDF>
  </metadata>
  <g
     inkscape:label="Layer 1"
     inkscape:groupmode="layer"
     id="layer1"
     transform="translate(0,-290.65)">
    <path
       id="path836"
       style="fill:none;fill-opacity:1;stroke:#5a5a5a;stroke-width:0.05326402;stroke-miterlimit:4;stroke-dasharray:none;stroke-opacity:0.81960784"
       d="m 3.2384933,295.80783 a 0.17112651,0.17112651 0 0 1 -0.171127,0.17112 0.17112651,0.17112651 0 0 1 -0.1711263,-0.17112 0.17112651,0.17112651 0 0 1 0.1711263,-0.17114 0.17112651,0.17112651 0 0 1 0.171127,0.17114 z m -0.7743412,-4.1087 h 1.244868 c 0.37504,0 0.6769675,0.30193 0.6769675,0.67697 v 2.54317 c 0,0.37503 -0.3019275,0.67696 -0.6769675,0.67696 h -1.244868 c -0.3750398,0 -0.6769675,-0.30193 -0.6769675,-0.67696 v -2.54317 c 0,-0.37504 0.3019277,-0.67697 0.6769675,-0.67697 z m -0.118137,-0.18273 h 1.4990236 c 0.4328365,0 0.781293,0.34846 0.781293,0.7813 v 2.93508 c 0,0.43283 -0.3484565,0.78129 -0.781293,0.78129 H 2.3460151 c -0.4328365,0 -0.781293,-0.34846 -0.781293,-0.78129 v -2.93508 c 0,-0.43284 0.3484565,-0.7813 0.781293,-0.7813 z"
       inkscape:connector-curvature="0" />
    <path
       style="fill:#4d4d4d;fill-opacity:0.28643218;stroke:#5a5a5a;stroke-width:0.05367693;stroke-miterlimit:4;stroke-dasharray:none;stroke-opacity:0.81960784"
       d="m 3.274532,291.54064 c -0.3554115,7.3e-4 -0.7108972,0.002 -1.066261,0.003 -0.152563,0.0421 -0.3034024,0.10953 -0.4109987,0.22931 -0.1018924,0.10173 -0.1678976,0.23755 -0.1975791,0.3774 -0.012822,0.32614 -0.00534,0.65287 -0.00787,0.97925 0.00151,0.7267 -0.00398,1.45347 0.0043,2.18013 -0.00175,0.12558 0.055424,0.24405 0.1215859,0.34766 0.1224989,0.17925 0.3254749,0.30667 0.5426591,0.32643 0.2318398,0.004 0.463724,0.002 0.6955841,0.004 0.022909,-0.0189 -0.028475,-0.0383 -0.037249,-0.0582 -0.073234,-0.0875 -0.050214,-0.2384 0.052536,-0.29276 0.00311,-0.028 -0.043644,-0.0134 -0.060467,-0.0187 -0.1959658,-0.008 -0.3970774,0.009 -0.589592,-0.0161 -0.2478973,-0.0483 -0.4583294,-0.24288 -0.5300926,-0.48554 -0.032008,-0.12142 -0.018907,-0.25108 -0.024833,-0.37594 -0.0027,-0.74906 -0.00644,-1.49814 -0.00175,-2.24719 0.00238,-0.14098 -0.00191,-0.28921 0.067108,-0.41733 0.076431,-0.15792 0.2086384,-0.29178 0.3760229,-0.35077 0.075635,-0.032 0.1560041,-0.0525 0.238642,-0.0441 0.4514578,0.002 0.9030427,-0.005 1.3544211,0.005 0.1746943,0.0132 0.3371228,0.11297 0.4480375,0.24708 0.1120195,0.13508 0.1643405,0.31095 0.1551687,0.48497 0.00461,0.81211 0.00175,1.62429 -0.00285,2.4364 -0.00191,0.10504 0.00486,0.21443 -0.039612,0.31193 -0.06975,0.18568 -0.2240515,0.33664 -0.4088357,0.40746 -0.128386,0.0526 -0.2739493,0.0337 -0.4109414,0.0413 -0.1246705,0.003 -0.2500544,1.6e-4 -0.3742469,0.0106 -0.014373,0.0199 0.026471,0.0234 0.031801,0.0414 0.063617,0.0614 0.074793,0.16431 0.031426,0.23988 -0.016744,0.0292 -0.047446,0.0471 -0.06613,0.0734 0.032485,0.0187 0.082974,0.002 0.122021,0.008 0.2252901,-0.003 0.4511244,0.007 0.6760655,-0.008 0.288063,-0.0414 0.5350525,-0.26571 0.6124203,-0.54504 0.038863,-0.0995 0.017753,-0.20716 0.023026,-0.31122 -2.123e-4,-0.98305 4.065e-4,-1.96615 -3.055e-4,-2.94916 -0.04327,-0.20522 -0.1603723,-0.39747 -0.3384097,-0.51218 -0.1255367,-0.0838 -0.2768502,-0.12785 -0.4279273,-0.11988 -0.1856098,-0.002 -0.3712442,-0.002 -0.5568642,-0.002 z"
       id="path885"
       inkscape:connector-curvature="0" />
    <circle
       style="fill:#ff0000;fill-opacity:1;stroke:#a90000;stroke-width:0.05394802;stroke-miterlimit:4;stroke-dasharray:none;stroke-opacity:1"
       id="path887"
       cx="3.4616911"
       cy="292.64313"
       r="0.66686285" />
  </g>
</svg>
