<?xml version="1.0" encoding="UTF-8" standalone="no"?>
<!-- Created with Inkscape (http://www.inkscape.org/) -->

<svg
   xmlns:dc="http://purl.org/dc/elements/1.1/"
   xmlns:cc="http://creativecommons.org/ns#"
   xmlns:rdf="http://www.w3.org/1999/02/22-rdf-syntax-ns#"
   xmlns:svg="http://www.w3.org/2000/svg"
   xmlns="http://www.w3.org/2000/svg"
   xmlns:sodipodi="http://sodipodi.sourceforge.net/DTD/sodipodi-0.dtd"
   xmlns:inkscape="http://www.inkscape.org/namespaces/inkscape"
   width="24"
   height="24"
   viewBox="0 0 6.35 6.35"
   version="1.1"
   id="svg8"
   inkscape:version="0.92.4 (5da689c313, 2019-01-14)"
   sodipodi:docname="plugOn.svg">
  <defs
     id="defs2" />
  <sodipodi:namedview
     id="base"
     pagecolor="#ffffff"
     bordercolor="#666666"
     borderopacity="1.0"
     inkscape:pageopacity="0.0"
     inkscape:pageshadow="2"
     inkscape:zoom="22.4"
     inkscape:cx="14.853525"
     inkscape:cy="15.215107"
     inkscape:document-units="mm"
     inkscape:current-layer="layer1"
     showgrid="false"
     inkscape:window-width="1920"
     inkscape:window-height="1057"
     inkscape:window-x="-8"
     inkscape:window-y="-8"
     inkscape:window-maximized="1"
     units="px" />
  <metadata
     id="metadata5">
    <rdf:RDF>
      <cc:Work
         rdf:about="">
        <dc:format>image/svg+xml</dc:format>
        <dc:type
           rdf:resource="http://purl.org/dc/dcmitype/StillImage" />
        <dc:title></dc:title>
      </cc:Work>
    </rdf:RDF>
  </metadata>
  <g
     inkscape:label="Layer 1"
     inkscape:groupmode="layer"
     id="layer1"
     transform="translate(0,-290.65)">
    <path
       id="path836"
       style="fill:none;fill-opacity:1;stroke:#5a5a5a;stroke-width:0.073462;stroke-miterlimit:4;stroke-dasharray:none;stroke-opacity:0.81960784"
       d="m 3.2690834,296.64083 a 0.23601852,0.23601852 0 0 1 -0.2360193,0.23601 0.23601852,0.23601852 0 0 1 -0.2360181,-0.23601 0.23601852,0.23601852 0 0 1 0.2360181,-0.23603 0.23601852,0.23601852 0 0 1 0.2360193,0.23603 z M 2.2011081,290.9741 h 1.7169282 c 0.5172569,0 0.933677,0.41642 0.933677,0.93368 v 3.50755 c 0,0.51724 -0.4164201,0.93366 -0.933677,0.93366 H 2.2011081 c -0.5172568,0 -0.933677,-0.41642 -0.933677,-0.93366 v -3.50755 c 0,-0.51726 0.4164202,-0.93368 0.933677,-0.93368 z M 2.038173,290.72207 h 2.0674608 c 0.5969702,0 1.0775632,0.4806 1.0775632,1.07757 v 4.04808 c 0,0.59696 -0.480593,1.07756 -1.0775632,1.07756 H 2.038173 c -0.5969702,0 -1.07756326,-0.4806 -1.07756326,-1.07756 v -4.04808 c 0,-0.59697 0.48059306,-1.07757 1.07756326,-1.07757 z"
       inkscape:connector-curvature="0" />
    <path
       style="fill:#4d4d4d;fill-opacity:0.28643218;stroke:#5a5a5a;stroke-width:0.07403148;stroke-miterlimit:4;stroke-dasharray:none;stroke-opacity:0.81960784"
       d="m 3.318797,290.75639 c -0.4901853,10e-4 -0.9804729,0.002 -1.4705925,0.004 -0.2104156,0.058 -0.418454,0.15106 -0.5668513,0.31626 -0.1405305,0.14031 -0.2315652,0.32763 -0.2725021,0.5205 -0.0176836,0.44984 -0.00735,0.90045 -0.0108604,1.35059 0.002084,1.00227 -0.005488,2.00464 0.005927,3.00685 -0.00241,0.17319 0.076442,0.33661 0.1676919,0.4795 0.1689512,0.24722 0.4488965,0.42297 0.7484381,0.4502 0.3197544,0.005 0.6395702,0.003 0.9593529,0.005 0.031595,-0.0261 -0.039274,-0.0529 -0.051374,-0.0804 -0.1010039,-0.12078 -0.069256,-0.32879 0.072459,-0.40376 0.00429,-0.0386 -0.060194,-0.0185 -0.083397,-0.0259 -0.2702771,-0.0109 -0.5476511,0.0125 -0.8131682,-0.0222 -0.3419012,-0.0665 -0.6321301,-0.33497 -0.7311063,-0.66965 -0.044145,-0.16748 -0.026077,-0.34629 -0.034249,-0.51851 -0.00372,-1.0331 -0.00888,-2.06624 -0.00241,-3.09934 0.00329,-0.19442 -0.00263,-0.39888 0.092556,-0.57558 0.1054135,-0.2178 0.287755,-0.4024 0.5186127,-0.48377 0.1043164,-0.0443 0.2151615,-0.0724 0.3291362,-0.0608 0.6226528,0.003 1.245481,-0.006 1.8680242,0.006 0.2409394,0.0182 0.4649614,0.15582 0.6179356,0.34079 0.1544978,0.18628 0.2266593,0.42886 0.2140095,0.66886 0.00636,1.12007 0.00241,2.24023 -0.00394,3.3603 -0.00263,0.14487 0.0067,0.29574 -0.054633,0.43023 -0.096199,0.25607 -0.3090132,0.46427 -0.5638684,0.56196 -0.1770705,0.0726 -0.3778322,0.0464 -0.5667724,0.057 -0.1719461,0.004 -0.3448763,2.2e-4 -0.5161631,0.0147 -0.019824,0.0275 0.036509,0.0323 0.043859,0.0571 0.087741,0.0847 0.1031539,0.22661 0.043344,0.33084 -0.023093,0.0402 -0.065437,0.065 -0.091207,0.10127 0.044803,0.0258 0.1144389,0.003 0.1682919,0.011 0.3107214,-0.004 0.6221932,0.008 0.932433,-0.011 0.3972979,-0.0571 0.7379472,-0.36647 0.844653,-0.75171 0.053601,-0.1372 0.024486,-0.28573 0.031759,-0.42924 -2.929e-4,-1.35583 5.605e-4,-2.71173 -4.214e-4,-4.06751 -0.059679,-0.28303 -0.2211862,-0.54818 -0.4667363,-0.70638 -0.1731408,-0.11558 -0.3818332,-0.17635 -0.5901995,-0.16536 -0.2559939,-0.003 -0.5120218,-0.002 -0.7680299,-0.002 z"
       id="path885"
       inkscape:connector-curvature="0" />
    <circle
       style="fill:#4dff4d;fill-opacity:1;stroke:#5ac15a;stroke-width:0.06680537;stroke-miterlimit:4;stroke-dasharray:none;stroke-opacity:1"
       id="path887"
       cx="3.6378708"
       cy="292.09808"
       r="0.82579559" />
  </g>
</svg>
